De serie draait om Alf, een buitenaards wezen dat is gevlucht van zijn thuisplaneet Melmak omdat deze op het punt van ontploffen stond. Hij volgt met zijn ruimteschip het radiosignaal van een amateurradiozender en belandt zo op aarde. Daar stort zijn schip neer in de garage van de familie Tanner, een middenklas familie bestaande uit sociaal werker Willie (Max Wright), zijn vrouw Kate (Anne Schedeen) en hun twee kinderen: tienerdochter Lynn (Andrea Elson) en zoon Brian (Benji Gregory).

Omdat Alf niet terug kan naar Melmak wordt hij een lid van het gezin. De kat van de familie Tanner, genaamd Lucky, is zijn leven sindsdien niet meer zeker aangezien katten een delicatesse zijn op Melmak. Gelukkig voor Lucky krijgt Alf later in de serie meer respect voor hem.

Doordat de familie Alfs bestaan geheim besluit te houden (vooral omdat er genoeg wetenschappers en militairen zijn die Alf zouden willen onderzoeken) ontstaan er vele komische situaties. Vooral de spontane bezoekjes van de buren, de familie Ochmonek, leveren de nodige hilariteit op. Alf houdt zich over het algemeen verborgen in de keuken als er mensen op bezoek komen. Gedurende de serie leert hij buiten de Tanners een paar andere mensen kennen zoals Willie's broer Neal, Kate's moeder Dorothy, het neefje van de Ochmoneks; Jack, de psychiater Larry, en Jody, een blinde vrouw die nooit ontdekt dat Alf geen mens is, hoewel ze wel doorheeft dat hij klein en erg behaard is. Ook leert hij steeds meer over het Aardse leven en de Aardse cultuur. Deze komt vaak als vreemd op hem over, terwijl Alfs gedrag juist vreemd is voor de Tanners.

Tijdens de laatste aflevering wordt hij even herenigd met zijn vriendin Rhonda en vriend Skip, welke de ontploffing van de planeet Melmak ook overleefd hebben. Hij besluit niet met ze mee te gaan en op aarde te blijven. Kort daarop wordt hij echter gevangen door een groep geleerden die hem al vanaf het begin in de gaten hadden.

1 Baby, Come Back 18 september 1989 
2 Lies 25 september 1989 
3 Wanted: Dead or Alive 2 oktober 1989 
4 We're in the Money 9 oktober 1989 
5 Mind Games 16 oktober 1989 
6 Hooked on a Feeling 23 oktober 1989 
7 He Ain't Heavy, He's Willie's Brother 30 oktober 1989 
8 The First Time Ever I Saw Your Face 6 november 1989 
9 Live and Let Die 13 november 1989 
10 Break Up to Make Up 20 november 1989 
11 Happy Together 27 november 1989 
12 Fever 4 december 1989 
13 It's My Party 11 december 1989 
14 Make 'em Laugh 8 januari 1990 
15 Love on the Rocks 15 januari 1990 
16 True Colors 22 januari 1990 
17 Gimme That Old Time Religion 29 januari 1990 
18 Future's So Bright, I Gotta Wear Shades 5 februari 1990 
19 When I'm 64 12 februari 1990 
20 Mr. Sandman 19 februari 1990 
21 Stayin' Alive 26 februari 1990 
22 Hungry Like the Wolf 3 maart 1990 
23 I Gotta Be Me 10 maart 1990 
24 Consider Me Gone 24 maart 1990 

Media info:

General
Complete name                    : E:\torrent2\ALF - Season 4 (NL subs) tvrip. Mkv.xvid.MPEG3.2.0-ACB-Team\ALF - Season 4 (NL subs) tvrip. Mkv.xvid.MPEG3.2.0-ACB-Team.mkv
Format                           : Matroska
File size                        : 4.04 GiB
Duration                         : 8h 34mn
Overall bit rate                 : 1 124 Kbps
Encoded date                     : UTC 2011-07-17 13:32:20
Writing application              : mkvmerge v3.2.0 ('Beginnings') built on Feb 12 2010 16:46:17
Writing library                  : libebml v0.7.9 + libmatroska v0.8.1

Video
ID                               : 1
Format                           : MPEG-4 Visual
Format profile                   : Advanced Simple@L5
Format settings, BVOP            : Yes
Format settings, QPel            : No
Format settings, GMC             : No warppoints
Format settings, Matrix          : Default (H.263)
Codec ID                         : XVID
Codec ID/Hint                    : XviD
Duration                         : 8h 34mn
Bit rate                         : 962 Kbps
Width                            : 512 pixels
Height                           : 384 pixels
Display aspect ratio             : 4:3
Frame rate                       : 29.970 fps
Color space                      : YUV
Chroma subsampling               : 4:2:0
Bit depth                        : 8 bits
Scan type                        : Progressive
Bits/(Pixel*Frame)               : 0.163
Stream size                      : 3.46 GiB (86%)
Writing library                  : XviD 1.2.0SMP (UTC 2006-01-08)

Audio
ID                               : 2
Format                           : MPEG Audio
Format version                   : Version 1
Format profile                   : Layer 3
Mode                             : Joint stereo
Mode extension                   : MS Stereo
Codec ID                         : A_MPEG/L3
Codec ID/Hint                    : MP3
Duration                         : 21mn 30s
Bit rate mode                    : Variable
Bit rate                         : 139 Kbps
Channel(s)                       : 2 channels
Sampling rate                    : 48.0 KHz
Stream size                      : 21.4 MiB (1%)
Writing library                  : LAME3.93 
Encoding settings                : -m j -V 1 -q 2 -lowpass 19.5 --vbr-new
Language                         : English

Text
ID                               : 3
Format                           : UTF-8
Codec ID                         : S_TEXT/UTF8
Codec ID/Info                    : UTF-8 Plain Text
Language                         : Dutch

Menu
00:00:00.000                     : en:Alf.401_Baby, Come Back
00:21:28.000                     : en:Alf.402_Lies
00:42:58.000                     : en:Alf.403_Wanted Dead Or Alive
01:04:29.000                     : en:Alf.404_We're In The Money
01:25:25.000                     : en:Alf.405_Mind Games
01:46:55.000                     : en:Alf.406_Hooked On A Feeling
02:08:25.000                     : en:Alf.407_He Aint Heavy, He's Willie's Brother
02:29:56.000                     : en:Alf.408_The First Time I Ever Saw Your Face
02:51:26.000                     : en:Alf.409_Live And Let Die
03:12:57.000                     : en:Alf.410_Break Up To Make Up
03:33:12.000                     : en:Alf.411_Happy Together
03:54:41.000                     : en:Alf.412_Fever
04:16:20.000                     : en:Alf.413_It's My Party
04:37:41.000                     : en:Alf.414_Make 'Em Laugh
05:01:13.000                     : en:Alf.415_Love On The Rocks
05:22:44.000                     : en:Alf.416_True Colors
05:44:14.000                     : en:Alf.417_Gimme That Old Time Religion
06:05:25.000                     : en:Alf.418_Future's So Bright, I Gotta Wear Shades
06:26:56.000                     : en:Alf.419_When I'm Sixty-Four
06:48:14.000                     : en:Alf.420_Mr. Sandman
07:09:44.000                     : en:Alf.421_Stayin' Alive
07:31:13.000                     : en:Alf.422_Hungry Like a Wolf
07:52:44.000                     : en:Alf.423_I Gotta Be Me
08:13:55.000                     : en:Alf.424_Consider Me Gone.

